<svg width="21" height="22" fill="none" xmlns="http://www.w3.org/2000/svg"><path d="m6.7 13.3-.4 1.2c0 .2 0 .4.2.5 0 0 2.1 1.3 3.8.5l.4-.1c-1.4-.4-2.8-1.2-4-2ZM6.7 7.7l.4.4a9.6 9.6 0 0 1 6.7-2c-.2-.3-.6-.8-1.2-1.2-1.1-.8-2.7-.2-3.9.6a13 13 0 0 0-2 1.6c-.2.2-.2.5 0 .6ZM5.5 12.3l-.6-.6c-.4-.5-.4-1.2 0-1.7l.6-.6A7 7 0 0 1 4 7.6a.4.4 0 0 0-.6 0 3 3 0 0 0-1 2.1V12a3 3 0 0 0 1 2c.2.3.5.3.6 0a7 7 0 0 1 1.6-1.7Z" fill="#78C0DE"/><path d="M15.3 14c-1.3-1.4-1.3-4.9 0-6.4l.2-.2c-1-.3-2-.5-3-.5a9.7 9.7 0 0 0-6 2.7l-1 1v.5l2 1.7c1.3 1 2.7 1.7 4.2 1.9h.8c1 0 2-.1 3-.4l-.2-.2Z" fill="#78C0DE"/><path d="m19.8 11.8.5-1c0-.6-.8-1.4-1.4-1.8-.7-.6-1.6-1-2.4-1.3l-.5.5c-1 1.2-1 4.1 0 5.3l.4.5a8.3 8.3 0 0 0 3.4-2.2Zm-3.1-1.3a.4.4 0 1 1 .8-.3.4.4 0 0 1-.8.3Z" fill="#78C0DE"/></svg>