<svg width="14" height="15" fill="none" xmlns="http://www.w3.org/2000/svg"><path d="M11.7 2.3c0-.4-.3-.6-.6-.6H9.3V.5H8.2v1.2H6.4V.5H5.2v1.2H3.5V.5H2.3v1.2H.6c-.3 0-.6.2-.6.6v1.1h11.7V2.3ZM9.3 7a4 4 0 0 1 2.4 0V4H0v7.6c0 .3.3.6.6.6h6A4 4 0 0 1 9.3 7ZM8.2 5.3h1.1v1.1H8.2V5.2Zm-3 0h1.2v1.1H5.2V5.2ZM3.5 11H2.3V9.8h1.2V11Zm0-2.3H2.3V7.5h1.2v1.2Zm0-2.4H2.3V5.2h1.2v1.1Zm1.8 1.2h1.1v1.2H5.2V7.5Z" fill="#FFBD54"/><path d="M10.5 7.5a3.5 3.5 0 1 0 0 7 3.5 3.5 0 0 0 0-7Zm.4 4h-.6L8.6 11l.3-1.1 1.4.4 1.5-1.5.9.9-1.8 1.7Z" fill="#FFBD54"/></svg>